<svg width="495" height="210" viewBox="0 0 495 210" fill="none" xmlns="http://www.w3.org/2000/svg" role="img" aria-labelledby="langs-title-light langs-desc-light">
  <title id="langs-title-light">Top Languages</title>
  <desc id="langs-desc-light">Top languages by byte size across public, non-fork repositories.</desc>
  <rect width="495" height="210" rx="20" fill="#f7f9fc"/>
  <rect x="0.5" y="0.5" width="494" height="209" rx="19.5" stroke="#d8deeb"/>
  <text x="24" y="36" fill="#24283b" font-size="22" font-weight="700">Top Languages</text>
  <text x="24" y="56" fill="#5a6178" font-size="12">Public, non-fork repositories only</text>
  <text x="471" y="36" text-anchor="end" fill="#7c3aed" font-size="14" font-weight="700">13 repos</text>
  
  <text x="24" y="72" fill="#24283b" font-size="13" font-weight="600">TeX</text>
  <text x="471" y="72" text-anchor="end" fill="#5a6178" font-size="12">80.2%</text>
  <rect x="160" y="62" width="292" height="8" rx="4" fill="#ffffff" stroke="#d8deeb"/>
  <rect x="160" y="62" width="234" height="8" rx="4" fill="#7aa2f7"/>
  <text x="24" y="94" fill="#24283b" font-size="13" font-weight="600">Python</text>
  <text x="471" y="94" text-anchor="end" fill="#5a6178" font-size="12">14.0%</text>
  <rect x="160" y="84" width="292" height="8" rx="4" fill="#ffffff" stroke="#d8deeb"/>
  <rect x="160" y="84" width="41" height="8" rx="4" fill="#bb9af7"/>
  <text x="24" y="116" fill="#24283b" font-size="13" font-weight="600">Shell</text>
  <text x="471" y="116" text-anchor="end" fill="#5a6178" font-size="12">2.6%</text>
  <rect x="160" y="106" width="292" height="8" rx="4" fill="#ffffff" stroke="#d8deeb"/>
  <rect x="160" y="106" width="8" height="8" rx="4" fill="#73daca"/>
  <text x="24" y="138" fill="#24283b" font-size="13" font-weight="600">Rust</text>
  <text x="471" y="138" text-anchor="end" fill="#5a6178" font-size="12">1.9%</text>
  <rect x="160" y="128" width="292" height="8" rx="4" fill="#ffffff" stroke="#d8deeb"/>
  <rect x="160" y="128" width="8" height="8" rx="4" fill="#e0af68"/>
  <text x="24" y="160" fill="#24283b" font-size="13" font-weight="600">TypeScript</text>
  <text x="471" y="160" text-anchor="end" fill="#5a6178" font-size="12">0.7%</text>
  <rect x="160" y="150" width="292" height="8" rx="4" fill="#ffffff" stroke="#d8deeb"/>
  <rect x="160" y="150" width="8" height="8" rx="4" fill="#f7768e"/>
  <text x="24" y="182" fill="#24283b" font-size="13" font-weight="600">JavaScript</text>
  <text x="471" y="182" text-anchor="end" fill="#5a6178" font-size="12">0.6%</text>
  <rect x="160" y="172" width="292" height="8" rx="4" fill="#ffffff" stroke="#d8deeb"/>
  <rect x="160" y="172" width="8" height="8" rx="4" fill="#7dcfff"/>
  <text x="24" y="191" fill="#5a6178" font-size="12">Measured by GitHub language bytes</text>
  <text x="471" y="191" text-anchor="end" fill="#5a6178" font-size="12">333.8K bytes</text>
</svg>
